<svg width="24" height="25" viewBox="0 0 24 25" fill="none" xmlns="http://www.w3.org/2000/svg">
    <path d="M11.7071 5.79289C12.0976 6.18342 12.0976 6.81658 11.7071 7.20711L7.41421 11.5H19C19.5523 11.5 20 11.9477 20 12.5C20 13.0523 19.5523 13.5 19 13.5H7.41421L11.7071 17.7929C12.0976 18.1834 12.0976 18.8166 11.7071 19.2071C11.3166 19.5976 10.6834 19.5976 10.2929 19.2071L4.29289 13.2071C4.10536 13.0196 4 12.7652 4 12.5C4 12.2348 4.10536 11.9804 4.29289 11.7929L10.2929 5.79289C10.6834 5.40237 11.3166 5.40237 11.7071 5.79289Z" fill="#0D0D0D"/>
</svg>
